<svg xmlns="http://www.w3.org/2000/svg" xmlns:xlink="http://www.w3.org/1999/xlink" viewBox="0,0,256,256" width="40px" height="40px"><g fill="#a1a3a8" fill-rule="nonzero" stroke="none" stroke-width="1" stroke-linecap="butt" stroke-linejoin="miter" stroke-miterlimit="10" stroke-dasharray="" stroke-dashoffset="0" font-family="none" font-weight="none" font-size="none" text-anchor="none" style="mix-blend-mode: normal"><g transform="scale(5.33333,5.33333)"><path d="M15.17383,2.60938c-3.25671,-0.08291 -6.22508,2.1242 -6.98633,5.42383l-1.10937,4.80469c3.094,-5.044 8.41959,-8.37141 14.30859,-8.94141l-4.80469,-1.10937c-0.47138,-0.10887 -0.94296,-0.16589 -1.4082,-0.17773zM23.61523,7c-7.24553,0.16119 -13.85428,4.98083 -15.95703,12.31445c-2.588,9.026 2.63125,18.43934 11.65625,21.02734c9.025,2.588 18.43934,-2.63025 21.02734,-11.65625c2.588,-9.026 -2.63025,-18.43934 -11.65625,-21.02734c-1.69237,-0.48525 -3.39827,-0.6954 -5.07031,-0.6582zM35.16211,7.07813c5.044,3.094 8.37141,8.41959 8.94141,14.30859l1.10938,-4.80469c0.871,-3.771 -1.47509,-7.52453 -5.24609,-8.39453zM20.19141,12.58984c0.26484,0.02049 0.53162,0.06853 0.79688,0.14453c2.123,0.608 3.35019,2.82231 2.74219,4.94531c-0.608,2.123 -2.82427,3.35019 -4.94727,2.74219c-2.123,-0.608 -3.34923,-2.82231 -2.74023,-4.94531c0.53288,-1.85762 2.29457,-3.03015 4.14844,-2.88672zM31.72656,15.89844c0.26493,0.02056 0.5315,0.06841 0.79688,0.14453c2.123,0.608 3.35119,2.82231 2.74219,4.94531c-0.608,2.122 -2.82427,3.35019 -4.94727,2.74219c-2.123,-0.608 -3.35019,-2.82231 -2.74219,-4.94531c0.532,-1.85763 2.29587,-3.03063 4.15039,-2.88672zM24.03516,22.00195c1.104,0.019 1.98189,0.9282 1.96289,2.0332c-0.019,1.104 -0.9282,1.98189 -2.0332,1.96289c-1.104,-0.019 -1.98189,-0.9282 -1.96289,-2.0332c0.019,-1.104 0.9282,-1.98189 2.0332,-1.96289zM16.88477,24.12695c0.26493,0.02049 0.5315,0.06658 0.79688,0.14258c2.123,0.608 3.35119,2.82427 2.74219,4.94727c-0.609,2.123 -2.82527,3.34923 -4.94727,2.74023c-2.123,-0.608 -3.35119,-2.82231 -2.74219,-4.94531c0.532,-1.85762 2.29587,-3.0282 4.15039,-2.88477zM3.89648,26.61523l-1.10937,4.80469c-0.87,3.771 1.47509,7.52353 5.24609,8.39453l4.80469,1.10938c-5.043,-3.094 -8.37141,-8.41959 -8.94141,-14.30859zM28.41797,27.43359c0.26493,0.02049 0.53345,0.06853 0.79883,0.14453c2.123,0.608 3.34923,2.82231 2.74023,4.94531c-0.609,2.123 -2.82231,3.35019 -4.94531,2.74219c-2.123,-0.608 -3.35019,-2.82231 -2.74219,-4.94531c0.532,-1.85763 2.29392,-3.03015 4.14844,-2.88672zM40.92383,35.16211c-3.094,5.043 -8.41959,8.37141 -14.30859,8.94141l4.80469,1.10938c3.771,0.87 7.52353,-1.47509 8.39453,-5.24609z"></path></g></g></svg>